<svg viewBox="0 0 120 120" fill="none" xmlns="http://www.w3.org/2000/svg">
  <rect width="120" height="120" fill="#0f0e0c"/>
  <g transform="translate(10, 31) scale(0.228) translate(-301, -182)">
    <path fill="#f0ede8" d="M585.624146,254.825424 C576.927307,239.656754 568.560059,224.286774 559.450989,209.369827 C547.774048,190.247696 526.006348,181.781708 505.180847,187.530807 C484.337708,193.284790 468.579681,213.563110 468.381836,235.222687 C468.208344,254.215546 468.261597,273.210754 468.281158,292.204865 C468.284454,295.396637 467.988678,298.532959 467.221008,301.605560 C466.492401,304.521759 464.753937,306.539825 461.754456,307.556488 C456.448822,309.354889 451.856750,307.514832 448.234222,301.190033 C431.847076,272.578613 415.394989,244.001114 399.364838,215.189682 C389.873718,198.131134 376.478455,186.780380 356.597351,185.814545 C337.152771,184.869919 322.088135,194.075867 311.986450,210.288300 C301.777222,226.673386 301.441833,243.974442 310.875458,261.053314 C318.685089,275.192139 326.730713,289.200775 334.698364,303.252045 C353.426758,336.280212 372.590118,369.071259 390.741333,402.413422 C400.588104,420.501007 422.086151,434.784332 445.321991,430.783447 C465.110992,427.376068 484.540588,407.495453 485.596100,387.343384 C486.616180,367.868988 485.791687,348.368408 485.949219,328.880188 C485.978851,325.214935 485.894531,321.551270 486.654419,317.933472 C487.911987,311.946289 491.603882,309.251526 497.722076,309.592316 C502.747314,309.872284 504.728271,313.629730 506.773254,317.238098 C523.030640,345.923401 539.269043,374.619568 555.440491,403.353363 C564.733337,419.865051 578.393005,430.313904 597.506165,431.436401 C625.420044,433.075684 649.610596,409.191711 649.593201,381.061035 C649.575439,352.236389 649.531860,323.411377 649.662231,294.587250 C649.704407,285.258453 654.966125,281.344177 664.027954,283.351501 C669.691406,284.606049 675.267944,286.613037 681.125793,286.495575 C714.469482,285.826996 740.195068,253.847046 727.603149,218.269501 C719.840820,196.337570 695.559753,181.816742 672.618225,186.693680 C646.298523,192.288742 632.347046,213.966400 631.673279,235.779312 C631.304260,247.723328 631.760864,259.753815 631.791504,271.744415 C631.814941,280.897827 631.909668,290.076324 631.299255,299.198639 C630.747498,307.444275 622.395935,311.023254 616.032654,306.044739 C614.516663,304.858612 613.360229,303.074921 612.373535,301.371887 C603.524353,286.098785 594.750244,270.782196 585.624146,254.825424 Z"/>
  </g>
</svg>
